<svg width="40" height="40" viewBox="0 0 40 40" fill="none" xmlns="http://www.w3.org/2000/svg">
<rect x="0.5" y="0.5" width="39" height="39" rx="19.5" fill="#1E293B"/>
<rect x="0.5" y="0.5" width="39" height="39" rx="19.5" stroke="#1E293B"/>
<path d="M18.7005 26.75C18.9684 27.2141 19.4636 27.4999 19.9995 27.4999C20.5353 27.4999 21.0305 27.2141 21.2985 26.75M13.446 22.4945C13.2458 22.7139 13.1939 23.0308 13.3137 23.3025C13.4336 23.5743 13.7025 23.7498 13.9995 23.75H25.9995C26.2964 23.7501 26.5655 23.575 26.6856 23.3034C26.8058 23.0318 26.7543 22.7149 26.5545 22.4952C25.557 21.467 24.4995 20.3742 24.4995 17C24.4995 14.5164 22.4831 12.5 19.9995 12.5C17.5158 12.5 15.4995 14.5164 15.4995 17C15.4995 20.3742 14.4412 21.467 13.446 22.4945" stroke="#94A3B8" stroke-width="1.5" stroke-linecap="round" stroke-linejoin="round"/>
</svg>
